<svg width="182" height="25" viewBox="0 0 182 25" fill="none" xmlns="http://www.w3.org/2000/svg">
<g clip-path="url(#clip0_0_159)">
<path d="M44.9922 19.1562C43.7266 19.1562 42.7266 18.7708 41.9922 18C41.263 17.2292 40.8984 16.1589 40.8984 14.7891C40.8984 13.4089 41.237 12.3125 41.9141 11.5C42.5964 10.6875 43.5104 10.2812 44.6562 10.2812C45.7292 10.2812 46.5781 10.6354 47.2031 11.3438C47.8281 12.0469 48.1406 12.9766 48.1406 14.1328V14.9531H42.2422C42.2682 15.9583 42.5208 16.7214 43 17.2422C43.4844 17.763 44.1641 18.0234 45.0391 18.0234C45.9609 18.0234 46.8724 17.8307 47.7734 17.4453V18.6016C47.3151 18.7995 46.8802 18.9401 46.4688 19.0234C46.0625 19.112 45.5703 19.1562 44.9922 19.1562ZM44.6406 11.3672C43.9531 11.3672 43.4036 11.5911 42.9922 12.0391C42.5859 12.487 42.3464 13.1068 42.2734 13.8984H46.75C46.75 13.0807 46.5677 12.4557 46.2031 12.0234C45.8385 11.5859 45.3177 11.3672 44.6406 11.3672ZM52.4219 14.6172L49.4453 10.4375H50.9219L53.1797 13.7188L55.4297 10.4375H56.8906L53.9141 14.6172L57.0469 19H55.5781L53.1797 15.5312L50.7578 19H49.2891L52.4219 14.6172ZM64.0156 19L63.7578 17.7812H63.6953C63.2682 18.3177 62.8411 18.6823 62.4141 18.875C61.9922 19.0625 61.4635 19.1562 60.8281 19.1562C59.9792 19.1562 59.3125 18.9375 58.8281 18.5C58.349 18.0625 58.1094 17.4401 58.1094 16.6328C58.1094 14.9036 59.4922 13.9974 62.2578 13.9141L63.7109 13.8672V13.3359C63.7109 12.6641 63.5651 12.1693 63.2734 11.8516C62.987 11.5286 62.526 11.3672 61.8906 11.3672C61.1771 11.3672 60.3698 11.5859 59.4688 12.0234L59.0703 11.0312C59.4922 10.8021 59.9531 10.6224 60.4531 10.4922C60.9583 10.362 61.4635 10.2969 61.9688 10.2969C62.9896 10.2969 63.7448 10.5234 64.2344 10.9766C64.7292 11.4297 64.9766 12.1562 64.9766 13.1562V19H64.0156ZM61.0859 18.0859C61.8932 18.0859 62.526 17.8646 62.9844 17.4219C63.4479 16.9792 63.6797 16.3594 63.6797 15.5625V14.7891L62.3828 14.8438C61.3516 14.8802 60.6068 15.0417 60.1484 15.3281C59.6953 15.6094 59.4688 16.0495 59.4688 16.6484C59.4688 17.1172 59.6094 17.474 59.8906 17.7188C60.1771 17.9635 60.5755 18.0859 61.0859 18.0859ZM78.5703 19V13.4297C78.5703 12.7474 78.4245 12.237 78.1328 11.8984C77.8411 11.5547 77.388 11.3828 76.7734 11.3828C75.9661 11.3828 75.3698 11.6146 74.9844 12.0781C74.599 12.5417 74.4062 13.2552 74.4062 14.2188V19H73.1094V13.4297C73.1094 12.7474 72.9635 12.237 72.6719 11.8984C72.3802 11.5547 71.9245 11.3828 71.3047 11.3828C70.4922 11.3828 69.8958 11.6276 69.5156 12.1172C69.1406 12.6016 68.9531 13.3984 68.9531 14.5078V19H67.6562V10.4375H68.7109L68.9219 11.6094H68.9844C69.2292 11.1927 69.5729 10.8672 70.0156 10.6328C70.4635 10.3984 70.9635 10.2812 71.5156 10.2812C72.8542 10.2812 73.7292 10.7656 74.1406 11.7344H74.2031C74.4583 11.2865 74.8281 10.9323 75.3125 10.6719C75.7969 10.4115 76.349 10.2812 76.9688 10.2812C77.9375 10.2812 78.6615 10.5312 79.1406 11.0312C79.625 11.526 79.8672 12.3203 79.8672 13.4141V19H78.5703ZM86.5312 19.1562C85.974 19.1562 85.4635 19.0547 85 18.8516C84.5417 18.6432 84.1562 18.3255 83.8438 17.8984H83.75C83.8125 18.3984 83.8438 18.8724 83.8438 19.3203V22.8438H82.5469V10.4375H83.6016L83.7812 11.6094H83.8438C84.1771 11.1406 84.5651 10.8021 85.0078 10.5938C85.4505 10.3854 85.9583 10.2812 86.5312 10.2812C87.6667 10.2812 88.5417 10.6693 89.1562 11.4453C89.776 12.2214 90.0859 13.3099 90.0859 14.7109C90.0859 16.1172 89.7708 17.2109 89.1406 17.9922C88.5156 18.7682 87.6458 19.1562 86.5312 19.1562ZM86.3438 11.3828C85.4688 11.3828 84.8359 11.625 84.4453 12.1094C84.0547 12.5938 83.8542 13.3646 83.8438 14.4219V14.7109C83.8438 15.9141 84.0443 16.776 84.4453 17.2969C84.8464 17.8125 85.4896 18.0703 86.375 18.0703C87.1146 18.0703 87.6927 17.7708 88.1094 17.1719C88.5312 16.5729 88.7422 15.7474 88.7422 14.6953C88.7422 13.6276 88.5312 12.8099 88.1094 12.2422C87.6927 11.6693 87.1042 11.3828 86.3438 11.3828ZM93.6562 19H92.3594V6.84375H93.6562V19ZM100.023 19.1562C98.7578 19.1562 97.7578 18.7708 97.0234 18C96.2943 17.2292 95.9297 16.1589 95.9297 14.7891C95.9297 13.4089 96.2682 12.3125 96.9453 11.5C97.6276 10.6875 98.5417 10.2812 99.6875 10.2812C100.76 10.2812 101.609 10.6354 102.234 11.3438C102.859 12.0469 103.172 12.9766 103.172 14.1328V14.9531H97.2734C97.2995 15.9583 97.5521 16.7214 98.0312 17.2422C98.5156 17.763 99.1953 18.0234 100.07 18.0234C100.992 18.0234 101.904 17.8307 102.805 17.4453V18.6016C102.346 18.7995 101.911 18.9401 101.5 19.0234C101.094 19.112 100.602 19.1562 100.023 19.1562ZM99.6719 11.3672C98.9844 11.3672 98.4349 11.5911 98.0234 12.0391C97.6172 12.487 97.3776 13.1068 97.3047 13.8984H101.781C101.781 13.0807 101.599 12.4557 101.234 12.0234C100.87 11.5859 100.349 11.3672 99.6719 11.3672ZM117.453 13.3047C117.453 14.0443 117.339 14.7214 117.109 15.3359C116.88 15.9505 116.557 16.4271 116.141 16.7656C115.724 17.1042 115.245 17.2734 114.703 17.2734C114.255 17.2734 113.878 17.138 113.57 16.8672C113.263 16.5964 113.081 16.25 113.023 15.8281H112.961C112.753 16.2812 112.453 16.6354 112.062 16.8906C111.677 17.1458 111.219 17.2734 110.688 17.2734C109.906 17.2734 109.294 17.0078 108.852 16.4766C108.414 15.9401 108.195 15.2135 108.195 14.2969C108.195 13.2344 108.503 12.3724 109.117 11.7109C109.732 11.0443 110.539 10.7109 111.539 10.7109C111.893 10.7109 112.294 10.7448 112.742 10.8125C113.19 10.875 113.594 10.9635 113.953 11.0781L113.758 14.75V14.9219C113.758 15.849 114.104 16.3125 114.797 16.3125C115.271 16.3125 115.656 16.0339 115.953 15.4766C116.25 14.9141 116.398 14.1849 116.398 13.2891C116.398 12.3464 116.206 11.5208 115.82 10.8125C115.435 10.1042 114.885 9.5599 114.172 9.17969C113.464 8.79427 112.648 8.60156 111.727 8.60156C110.565 8.60156 109.555 8.84375 108.695 9.32812C107.836 9.80729 107.18 10.4948 106.727 11.3906C106.273 12.2812 106.047 13.3125 106.047 14.4844C106.047 16.0729 106.466 17.2943 107.305 18.1484C108.143 19.0026 109.352 19.4297 110.93 19.4297C112.023 19.4297 113.159 19.2057 114.336 18.7578V19.7969C113.336 20.2344 112.201 20.4531 110.93 20.4531C109.039 20.4531 107.57 19.9349 106.523 18.8984C105.482 17.8568 104.961 16.4036 104.961 14.5391C104.961 13.1849 105.24 11.9792 105.797 10.9219C106.354 9.86458 107.148 9.04688 108.18 8.46875C109.211 7.88542 110.393 7.59375 111.727 7.59375C112.846 7.59375 113.841 7.83073 114.711 8.30469C115.586 8.77344 116.26 9.44271 116.734 10.3125C117.214 11.1771 117.453 12.1745 117.453 13.3047ZM109.375 14.3281C109.375 15.651 109.883 16.3125 110.898 16.3125C111.977 16.3125 112.562 15.4974 112.656 13.8672L112.766 11.8281C112.391 11.724 111.982 11.6719 111.539 11.6719C110.862 11.6719 110.331 11.9062 109.945 12.375C109.565 12.8438 109.375 13.4948 109.375 14.3281ZM123.641 11.4453H121.461V19H120.164V11.4453H118.633V10.8594L120.164 10.3906V9.91406C120.164 7.8099 121.083 6.75781 122.922 6.75781C123.375 6.75781 123.906 6.84896 124.516 7.03125L124.18 8.07031C123.68 7.90885 123.253 7.82812 122.898 7.82812C122.409 7.82812 122.047 7.99219 121.812 8.32031C121.578 8.64323 121.461 9.16406 121.461 9.88281V10.4375H123.641V11.4453ZM123.844 10.4375H125.234L127.109 15.3203C127.521 16.4349 127.776 17.2396 127.875 17.7344H127.938C128.005 17.4688 128.146 17.0156 128.359 16.375C128.578 15.7292 129.286 13.75 130.484 10.4375H131.875L128.195 20.1875C127.831 21.151 127.404 21.8333 126.914 22.2344C126.43 22.6406 125.833 22.8438 125.125 22.8438C124.729 22.8438 124.339 22.7995 123.953 22.7109V21.6719C124.24 21.7344 124.56 21.7656 124.914 21.7656C125.805 21.7656 126.44 21.2656 126.82 20.2656L127.297 19.0469L123.844 10.4375ZM134.562 19H133.266V6.84375H134.562V19ZM144.703 14.7109C144.703 16.1068 144.352 17.1979 143.648 17.9844C142.945 18.7656 141.974 19.1562 140.734 19.1562C139.969 19.1562 139.289 18.9766 138.695 18.6172C138.102 18.2578 137.643 17.7422 137.32 17.0703C136.997 16.3984 136.836 15.612 136.836 14.7109C136.836 13.3151 137.185 12.2292 137.883 11.4531C138.581 10.6719 139.549 10.2812 140.789 10.2812C141.987 10.2812 142.938 10.6797 143.641 11.4766C144.349 12.2734 144.703 13.3516 144.703 14.7109ZM138.18 14.7109C138.18 15.8047 138.398 16.638 138.836 17.2109C139.273 17.7839 139.917 18.0703 140.766 18.0703C141.615 18.0703 142.258 17.7865 142.695 17.2188C143.138 16.6458 143.359 15.8099 143.359 14.7109C143.359 13.6224 143.138 12.7969 142.695 12.2344C142.258 11.6667 141.609 11.3828 140.75 11.3828C139.901 11.3828 139.26 11.6615 138.828 12.2188C138.396 12.776 138.18 13.6068 138.18 14.7109ZM146.797 18.1719C146.797 17.8229 146.875 17.5599 147.031 17.3828C147.193 17.2005 147.422 17.1094 147.719 17.1094C148.021 17.1094 148.255 17.2005 148.422 17.3828C148.594 17.5599 148.68 17.8229 148.68 18.1719C148.68 18.5104 148.594 18.7708 148.422 18.9531C148.25 19.1354 148.016 19.2266 147.719 19.2266C147.453 19.2266 147.232 19.1458 147.055 18.9844C146.883 18.8177 146.797 18.5469 146.797 18.1719ZM154.672 19.1562C153.432 19.1562 152.471 18.776 151.789 18.0156C151.112 17.25 150.773 16.1693 150.773 14.7734C150.773 13.3411 151.117 12.2344 151.805 11.4531C152.497 10.6719 153.482 10.2812 154.758 10.2812C155.169 10.2812 155.581 10.3255 155.992 10.4141C156.404 10.5026 156.727 10.6068 156.961 10.7266L156.562 11.8281C156.276 11.7135 155.964 11.6198 155.625 11.5469C155.286 11.4688 154.987 11.4297 154.727 11.4297C152.987 11.4297 152.117 12.5391 152.117 14.7578C152.117 15.8099 152.328 16.6172 152.75 17.1797C153.177 17.7422 153.807 18.0234 154.641 18.0234C155.354 18.0234 156.086 17.8698 156.836 17.5625V18.7109C156.263 19.0078 155.542 19.1562 154.672 19.1562ZM166.266 14.7109C166.266 16.1068 165.914 17.1979 165.211 17.9844C164.508 18.7656 163.536 19.1562 162.297 19.1562C161.531 19.1562 160.852 18.9766 160.258 18.6172C159.664 18.2578 159.206 17.7422 158.883 17.0703C158.56 16.3984 158.398 15.612 158.398 14.7109C158.398 13.3151 158.747 12.2292 159.445 11.4531C160.143 10.6719 161.112 10.2812 162.352 10.2812C163.549 10.2812 164.5 10.6797 165.203 11.4766C165.911 12.2734 166.266 13.3516 166.266 14.7109ZM159.742 14.7109C159.742 15.8047 159.961 16.638 160.398 17.2109C160.836 17.7839 161.479 18.0703 162.328 18.0703C163.177 18.0703 163.82 17.7865 164.258 17.2188C164.701 16.6458 164.922 15.8099 164.922 14.7109C164.922 13.6224 164.701 12.7969 164.258 12.2344C163.82 11.6667 163.172 11.3828 162.312 11.3828C161.464 11.3828 160.823 11.6615 160.391 12.2188C159.958 12.776 159.742 13.6068 159.742 14.7109ZM179.461 19V13.4297C179.461 12.7474 179.315 12.237 179.023 11.8984C178.732 11.5547 178.279 11.3828 177.664 11.3828C176.857 11.3828 176.26 11.6146 175.875 12.0781C175.49 12.5417 175.297 13.2552 175.297 14.2188V19H174V13.4297C174 12.7474 173.854 12.237 173.562 11.8984C173.271 11.5547 172.815 11.3828 172.195 11.3828C171.383 11.3828 170.786 11.6276 170.406 12.1172C170.031 12.6016 169.844 13.3984 169.844 14.5078V19H168.547V10.4375H169.602L169.812 11.6094H169.875C170.12 11.1927 170.464 10.8672 170.906 10.6328C171.354 10.3984 171.854 10.2812 172.406 10.2812C173.745 10.2812 174.62 10.7656 175.031 11.7344H175.094C175.349 11.2865 175.719 10.9323 176.203 10.6719C176.688 10.4115 177.24 10.2812 177.859 10.2812C178.828 10.2812 179.552 10.5312 180.031 11.0312C180.516 11.526 180.758 12.3203 180.758 13.4141V19H179.461Z" fill="white"/>
</g>
<path fill-rule="evenodd" clip-rule="evenodd" d="M20 4H4C2.9 4 2 4.9 2 6V18C2 19.1 2.9 20 4 20H20C21.1 20 22 19.1 22 18V6C22 4.9 21.1 4 20 4ZM20 18H18V9.2L12 13L6 9.2V18H4V6H5.2L12 10.2L18.8 6H20V18Z" fill="white"/>
<defs>
<clipPath id="clip0_0_159">
<rect width="142" height="24" fill="white" transform="translate(40 1)"/>
</clipPath>
</defs>
</svg>
