<svg width="222" height="25" viewBox="0 0 222 25" fill="none" xmlns="http://www.w3.org/2000/svg">
<g clip-path="url(#clip0_0_167)">
<path d="M48.8125 10.9062C48.8125 12.0625 48.4167 12.9531 47.625 13.5781C46.8385 14.1979 45.7109 14.5078 44.2422 14.5078H42.8984V19H41.5703V7.57812H44.5312C47.3854 7.57812 48.8125 8.6875 48.8125 10.9062ZM42.8984 13.3672H44.0938C45.2708 13.3672 46.1224 13.1771 46.6484 12.7969C47.1745 12.4167 47.4375 11.8073 47.4375 10.9688C47.4375 10.2135 47.1901 9.65104 46.6953 9.28125C46.2005 8.91146 45.4297 8.72656 44.3828 8.72656H42.8984V13.3672ZM56.875 19V13.4609C56.875 12.763 56.7161 12.2422 56.3984 11.8984C56.0807 11.5547 55.5833 11.3828 54.9062 11.3828C54.0052 11.3828 53.3464 11.6276 52.9297 12.1172C52.5182 12.6068 52.3125 13.4089 52.3125 14.5234V19H51.0156V6.84375H52.3125V10.5234C52.3125 10.9661 52.2917 11.3333 52.25 11.625H52.3281C52.5833 11.2135 52.9453 10.8906 53.4141 10.6562C53.888 10.4167 54.4271 10.2969 55.0312 10.2969C56.0781 10.2969 56.862 10.5469 57.3828 11.0469C57.9089 11.5417 58.1719 12.3307 58.1719 13.4141V19H56.875ZM68.2344 14.7109C68.2344 16.1068 67.8828 17.1979 67.1797 17.9844C66.4766 18.7656 65.5052 19.1562 64.2656 19.1562C63.5 19.1562 62.8203 18.9766 62.2266 18.6172C61.6328 18.2578 61.1745 17.7422 60.8516 17.0703C60.5286 16.3984 60.3672 15.612 60.3672 14.7109C60.3672 13.3151 60.7161 12.2292 61.4141 11.4531C62.112 10.6719 63.0807 10.2812 64.3203 10.2812C65.5182 10.2812 66.4688 10.6797 67.1719 11.4766C67.8802 12.2734 68.2344 13.3516 68.2344 14.7109ZM61.7109 14.7109C61.7109 15.8047 61.9297 16.638 62.3672 17.2109C62.8047 17.7839 63.4479 18.0703 64.2969 18.0703C65.1458 18.0703 65.7891 17.7865 66.2266 17.2188C66.6693 16.6458 66.8906 15.8099 66.8906 14.7109C66.8906 13.6224 66.6693 12.7969 66.2266 12.2344C65.7891 11.6667 65.1406 11.3828 64.2812 11.3828C63.4323 11.3828 62.7917 11.6615 62.3594 12.2188C61.9271 12.776 61.7109 13.6068 61.7109 14.7109ZM76.375 19V13.4609C76.375 12.763 76.2161 12.2422 75.8984 11.8984C75.5807 11.5547 75.0833 11.3828 74.4062 11.3828C73.5104 11.3828 72.8542 11.625 72.4375 12.1094C72.0208 12.5938 71.8125 13.3932 71.8125 14.5078V19H70.5156V10.4375H71.5703L71.7812 11.6094H71.8438C72.1094 11.1875 72.4818 10.862 72.9609 10.6328C73.4401 10.3984 73.974 10.2812 74.5625 10.2812C75.5938 10.2812 76.3698 10.5312 76.8906 11.0312C77.4115 11.526 77.6719 12.3203 77.6719 13.4141V19H76.375ZM83.9609 19.1562C82.6953 19.1562 81.6953 18.7708 80.9609 18C80.2318 17.2292 79.8672 16.1589 79.8672 14.7891C79.8672 13.4089 80.2057 12.3125 80.8828 11.5C81.5651 10.6875 82.4792 10.2812 83.625 10.2812C84.6979 10.2812 85.5469 10.6354 86.1719 11.3438C86.7969 12.0469 87.1094 12.9766 87.1094 14.1328V14.9531H81.2109C81.237 15.9583 81.4896 16.7214 81.9688 17.2422C82.4531 17.763 83.1328 18.0234 84.0078 18.0234C84.9297 18.0234 85.8411 17.8307 86.7422 17.4453V18.6016C86.2839 18.7995 85.849 18.9401 85.4375 19.0234C85.0312 19.112 84.5391 19.1562 83.9609 19.1562ZM83.6094 11.3672C82.9219 11.3672 82.3724 11.5911 81.9609 12.0391C81.5547 12.487 81.3151 13.1068 81.2422 13.8984H85.7188C85.7188 13.0807 85.5365 12.4557 85.1719 12.0234C84.8073 11.5859 84.2865 11.3672 83.6094 11.3672ZM89.1406 18.1719C89.1406 17.8229 89.2188 17.5599 89.375 17.3828C89.5365 17.2005 89.7656 17.1094 90.0625 17.1094C90.3646 17.1094 90.599 17.2005 90.7656 17.3828C90.9375 17.5599 91.0234 17.8229 91.0234 18.1719C91.0234 18.5104 90.9375 18.7708 90.7656 18.9531C90.5938 19.1354 90.3594 19.2266 90.0625 19.2266C89.7969 19.2266 89.5755 19.1458 89.3984 18.9844C89.2266 18.8177 89.1406 18.5469 89.1406 18.1719ZM89.1406 11.2734C89.1406 10.5703 89.4479 10.2188 90.0625 10.2188C90.7031 10.2188 91.0234 10.5703 91.0234 11.2734C91.0234 11.612 90.9375 11.8724 90.7656 12.0547C90.5938 12.237 90.3594 12.3281 90.0625 12.3281C89.7969 12.3281 89.5755 12.2474 89.3984 12.0859C89.2266 11.9193 89.1406 11.6484 89.1406 11.2734ZM101.477 12.8203H104.695V13.8984H101.477V17.2266H100.391V13.8984H97.1875V12.8203H100.391V9.47656H101.477V12.8203ZM111.117 19H109.852V10.8594C109.852 10.1823 109.872 9.54167 109.914 8.9375C109.805 9.04688 109.682 9.16146 109.547 9.28125C109.411 9.40104 108.792 9.90885 107.688 10.8047L107 9.91406L110.023 7.57812H111.117V19ZM115.344 15.3047V14.1172H119.18V15.3047H115.344ZM124.195 12.0234C125.398 12.0234 126.344 12.3229 127.031 12.9219C127.724 13.5156 128.07 14.3307 128.07 15.3672C128.07 16.5495 127.693 17.4766 126.938 18.1484C126.188 18.8203 125.151 19.1562 123.828 19.1562C122.542 19.1562 121.56 18.9505 120.883 18.5391V17.2891C121.247 17.5234 121.701 17.7083 122.242 17.8438C122.784 17.974 123.318 18.0391 123.844 18.0391C124.76 18.0391 125.471 17.8229 125.977 17.3906C126.487 16.9583 126.742 16.3333 126.742 15.5156C126.742 13.9219 125.766 13.125 123.812 13.125C123.318 13.125 122.656 13.2005 121.828 13.3516L121.156 12.9219L121.586 7.57812H127.266V8.77344H122.695L122.406 12.2031C123.005 12.0833 123.602 12.0234 124.195 12.0234ZM137.828 16.375H136.133V19H134.891V16.375H129.336V15.2422L134.758 7.51562H136.133V15.1953H137.828V16.375ZM134.891 15.1953V11.3984C134.891 10.6536 134.917 9.8125 134.969 8.875H134.906C134.656 9.375 134.422 9.78906 134.203 10.1172L130.633 15.1953H134.891ZM146.016 10.2656C146.016 10.9948 145.81 11.5911 145.398 12.0547C144.992 12.5182 144.414 12.8281 143.664 12.9844V13.0469C144.581 13.1615 145.26 13.4531 145.703 13.9219C146.146 14.3906 146.367 15.0052 146.367 15.7656C146.367 16.8542 145.99 17.6927 145.234 18.2812C144.479 18.8646 143.406 19.1562 142.016 19.1562C141.411 19.1562 140.857 19.1094 140.352 19.0156C139.852 18.9271 139.365 18.7682 138.891 18.5391V17.3047C139.385 17.5495 139.911 17.737 140.469 17.8672C141.031 17.9922 141.562 18.0547 142.062 18.0547C144.036 18.0547 145.023 17.2812 145.023 15.7344C145.023 14.349 143.935 13.6562 141.758 13.6562H140.633V12.5391H141.773C142.664 12.5391 143.37 12.3438 143.891 11.9531C144.411 11.5573 144.672 11.0104 144.672 10.3125C144.672 9.75521 144.479 9.31771 144.094 9C143.714 8.68229 143.195 8.52344 142.539 8.52344C142.039 8.52344 141.568 8.59115 141.125 8.72656C140.682 8.86198 140.177 9.11198 139.609 9.47656L138.953 8.60156C139.422 8.23177 139.961 7.94271 140.57 7.73438C141.185 7.52083 141.831 7.41406 142.508 7.41406C143.617 7.41406 144.479 7.66927 145.094 8.17969C145.708 8.6849 146.016 9.38021 146.016 10.2656ZM147.969 15.3047V14.1172H151.805V15.3047H147.969ZM158.055 19H156.789V10.8594C156.789 10.1823 156.81 9.54167 156.852 8.9375C156.742 9.04688 156.62 9.16146 156.484 9.28125C156.349 9.40104 155.729 9.90885 154.625 10.8047L153.938 9.91406L156.961 7.57812H158.055V19ZM169.914 19H162.406V17.8828L165.414 14.8594C166.331 13.9323 166.935 13.2708 167.227 12.875C167.518 12.4792 167.737 12.0938 167.883 11.7188C168.029 11.3438 168.102 10.9401 168.102 10.5078C168.102 9.89844 167.917 9.41667 167.547 9.0625C167.177 8.70312 166.664 8.52344 166.008 8.52344C165.534 8.52344 165.083 8.60156 164.656 8.75781C164.234 8.91406 163.763 9.19792 163.242 9.60938L162.555 8.72656C163.607 7.85156 164.753 7.41406 165.992 7.41406C167.065 7.41406 167.906 7.6901 168.516 8.24219C169.125 8.78906 169.43 9.52604 169.43 10.4531C169.43 11.1771 169.227 11.8932 168.82 12.6016C168.414 13.3099 167.654 14.2057 166.539 15.2891L164.039 17.7344V17.7969H169.914V19ZM178.641 10.2656C178.641 10.9948 178.435 11.5911 178.023 12.0547C177.617 12.5182 177.039 12.8281 176.289 12.9844V13.0469C177.206 13.1615 177.885 13.4531 178.328 13.9219C178.771 14.3906 178.992 15.0052 178.992 15.7656C178.992 16.8542 178.615 17.6927 177.859 18.2812C177.104 18.8646 176.031 19.1562 174.641 19.1562C174.036 19.1562 173.482 19.1094 172.977 19.0156C172.477 18.9271 171.99 18.7682 171.516 18.5391V17.3047C172.01 17.5495 172.536 17.737 173.094 17.8672C173.656 17.9922 174.188 18.0547 174.688 18.0547C176.661 18.0547 177.648 17.2812 177.648 15.7344C177.648 14.349 176.56 13.6562 174.383 13.6562H173.258V12.5391H174.398C175.289 12.5391 175.995 12.3438 176.516 11.9531C177.036 11.5573 177.297 11.0104 177.297 10.3125C177.297 9.75521 177.104 9.31771 176.719 9C176.339 8.68229 175.82 8.52344 175.164 8.52344C174.664 8.52344 174.193 8.59115 173.75 8.72656C173.307 8.86198 172.802 9.11198 172.234 9.47656L171.578 8.60156C172.047 8.23177 172.586 7.94271 173.195 7.73438C173.81 7.52083 174.456 7.41406 175.133 7.41406C176.242 7.41406 177.104 7.66927 177.719 8.17969C178.333 8.6849 178.641 9.38021 178.641 10.2656ZM180.594 15.3047V14.1172H184.43V15.3047H180.594ZM193.922 16.375H192.227V19H190.984V16.375H185.43V15.2422L190.852 7.51562H192.227V15.1953H193.922V16.375ZM190.984 15.1953V11.3984C190.984 10.6536 191.01 9.8125 191.062 8.875H191C190.75 9.375 190.516 9.78906 190.297 10.1172L186.727 15.1953H190.984ZM198.602 12.0234C199.805 12.0234 200.75 12.3229 201.438 12.9219C202.13 13.5156 202.477 14.3307 202.477 15.3672C202.477 16.5495 202.099 17.4766 201.344 18.1484C200.594 18.8203 199.557 19.1562 198.234 19.1562C196.948 19.1562 195.966 18.9505 195.289 18.5391V17.2891C195.654 17.5234 196.107 17.7083 196.648 17.8438C197.19 17.974 197.724 18.0391 198.25 18.0391C199.167 18.0391 199.878 17.8229 200.383 17.3906C200.893 16.9583 201.148 16.3333 201.148 15.5156C201.148 13.9219 200.172 13.125 198.219 13.125C197.724 13.125 197.062 13.2005 196.234 13.3516L195.562 12.9219L195.992 7.57812H201.672V8.77344H197.102L196.812 12.2031C197.411 12.0833 198.008 12.0234 198.602 12.0234ZM204.32 14.1172C204.32 11.8724 204.755 10.1953 205.625 9.08594C206.5 7.97135 207.792 7.41406 209.5 7.41406C210.089 7.41406 210.552 7.46354 210.891 7.5625V8.67969C210.49 8.54948 210.031 8.48438 209.516 8.48438C208.292 8.48438 207.357 8.86719 206.711 9.63281C206.065 10.3932 205.711 11.5911 205.648 13.2266H205.742C206.315 12.3307 207.221 11.8828 208.461 11.8828C209.487 11.8828 210.294 12.1927 210.883 12.8125C211.477 13.4323 211.773 14.2734 211.773 15.3359C211.773 16.5234 211.448 17.4583 210.797 18.1406C210.151 18.8177 209.276 19.1562 208.172 19.1562C206.99 19.1562 206.052 18.7135 205.359 17.8281C204.667 16.9375 204.32 15.7005 204.32 14.1172ZM208.156 18.0547C208.896 18.0547 209.469 17.8229 209.875 17.3594C210.286 16.8906 210.492 16.2161 210.492 15.3359C210.492 14.5807 210.302 13.987 209.922 13.5547C209.542 13.1224 208.974 12.9062 208.219 12.9062C207.75 12.9062 207.32 13.0026 206.93 13.1953C206.539 13.388 206.227 13.6536 205.992 13.9922C205.763 14.3307 205.648 14.6823 205.648 15.0469C205.648 15.5833 205.753 16.0833 205.961 16.5469C206.169 17.0104 206.464 17.3776 206.844 17.6484C207.229 17.9193 207.667 18.0547 208.156 18.0547ZM214.789 19L219.523 8.77344H213.297V7.57812H220.898V8.61719L216.227 19H214.789Z" fill="white"/>
<path fill-rule="evenodd" clip-rule="evenodd" d="M20 15.5C18.8 15.5 17.6 15.3 16.4 14.9C16.1 14.8 15.7 14.9 15.4 15.1L13.2 17.3C10.4 15.9 8.1 13.5 6.6 10.7L8.8 8.5C9.1 8.2 9.2 7.8 9 7.5C8.7 6.4 8.5 5.2 8.5 4C8.5 3.4 8.1 3 7.5 3H4C3.4 3 3 3.4 3 4C3 13.4 10.6 21 20 21C20.6 21 21 20.6 21 20V16.5C21 15.9 20.6 15.5 20 15.5ZM19 12H21C21 7 17 3 12 3V5C15.9 5 19 8.1 19 12ZM15 12H17C17 9.2 14.8 7 12 7V9C13.7 9 15 10.3 15 12Z" fill="white"/>
</g>
<defs>
<clipPath id="clip0_0_167">
<rect width="222" height="25" fill="white"/>
</clipPath>
</defs>
</svg>
